<?xml version="1.0" standalone="no"?>
<!DOCTYPE svg PUBLIC "-//W3C//DTD SVG 20010904//EN"
 "http://www.w3.org/TR/2001/REC-SVG-20010904/DTD/svg10.dtd">
<svg version="1.0" xmlns="http://www.w3.org/2000/svg"
 width="1602.000000pt" height="465.000000pt" viewBox="0 0 1602.000000 465.000000"
 preserveAspectRatio="xMidYMid meet">

<g transform="translate(0.000000,465.000000) scale(0.100000,-0.100000)"
fill="#000000" stroke="none">
<path d="M2120 3965 c0 -36 3 -43 13 -34 6 6 12 25 12 42 0 17 -6 32 -12 35
-9 2 -13 -10 -13 -43z"/>
<path d="M1934 3838 c-87 -84 -248 -241 -359 -348 -225 -220 -495 -482 -537
-522 -15 -14 -28 -35 -28 -45 0 -11 166 -183 408 -423 643 -638 676 -670 702
-670 15 0 41 18 74 53 28 28 50 55 49 59 -2 4 6 10 17 13 11 4 20 10 20 15 0
5 12 21 28 36 15 15 21 23 15 20 -7 -4 -31 -8 -52 -9 -32 -2 -39 1 -38 15 1
18 17 26 17 8 0 -6 9 -6 23 -1 12 4 28 6 35 4 6 -3 12 0 12 7 0 6 4 8 10 5 6
-3 7 1 3 10 -3 9 -9 12 -12 7 -3 -5 -16 -12 -28 -16 -18 -6 -22 -4 -17 9 5 13
2 14 -21 5 -34 -13 -35 -13 -29 4 3 8 0 17 -7 22 -7 4 -10 3 -5 -4 4 -7 -2 -9
-19 -6 -30 5 -34 -12 -5 -21 11 -4 17 -11 14 -17 -4 -6 -9 -6 -13 -1 -3 5 -14
12 -24 16 -17 6 -17 9 -3 29 18 25 21 42 7 33 -5 -3 -12 4 -16 15 -6 18 -16
24 -36 22 -4 -1 -10 10 -13 23 -4 14 -11 25 -16 25 -6 0 -6 9 -2 23 11 28 5
54 -13 61 -16 6 -8 -24 9 -36 7 -5 5 -8 -4 -8 -12 0 -15 -10 -13 -42 1 -30 -1
-38 -7 -28 -5 8 -6 26 -3 39 4 15 2 22 -4 18 -6 -4 -9 9 -7 33 1 23 -1 38 -7
35 -5 -4 -9 0 -9 7 0 10 -2 10 -9 -1 -10 -16 -2 -53 10 -45 5 3 9 3 9 0 0 -3
-8 -10 -18 -15 -18 -10 -20 -5 -23 51 0 10 -5 21 -11 24 -6 4 -5 10 3 15 10 6
11 9 2 9 -7 0 -13 6 -13 14 0 8 -4 17 -9 21 -6 3 -8 -12 -6 -35 2 -23 0 -38
-6 -35 -5 4 -9 11 -9 16 0 9 -9 22 -39 55 -16 18 -32 1 -24 -25 4 -12 3 -13
-5 -3 -5 7 -7 24 -5 36 3 13 -2 30 -10 37 -10 10 -12 21 -6 35 6 18 4 21 -9
17 -14 -3 -17 -14 -15 -46 1 -34 0 -38 -8 -24 -6 10 -9 27 -6 38 3 10 2 19 -2
19 -4 0 -6 13 -3 30 4 26 1 30 -18 30 -22 0 -22 -1 -6 -19 16 -17 16 -19 2
-17 -9 1 -21 7 -27 13 -15 15 -17 56 -4 65 6 5 6 8 -2 8 -7 0 -13 7 -13 15 0
8 -4 15 -9 15 -5 0 -8 -16 -7 -35 1 -19 -2 -35 -6 -35 -5 0 -8 7 -8 16 0 8 -6
22 -12 29 -43 48 -49 61 -22 51 12 -5 15 -2 10 10 -3 8 -6 17 -6 19 0 2 -8 1
-18 -2 -14 -3 -17 -13 -15 -46 1 -29 -1 -37 -7 -27 -5 8 -7 24 -4 36 3 12 -1
26 -10 33 -11 9 -12 19 -6 36 7 19 6 22 -10 18 -15 -4 -17 -10 -10 -28 7 -17
5 -25 -6 -29 -14 -5 -17 10 -16 77 0 15 -4 27 -9 27 -5 0 -9 18 -9 41 0 32 -3
40 -14 36 -8 -3 -17 -1 -20 6 -2 7 -5 0 -5 -14 -1 -15 6 -29 14 -32 9 -4 13
-17 12 -37 -2 -32 -17 -43 -17 -12 0 10 -5 23 -11 29 -7 7 -12 25 -13 40 -1
18 -6 27 -14 25 -8 -1 -12 3 -10 10 3 8 16 12 31 10 33 -4 35 10 5 23 -13 6
-24 19 -25 30 -3 19 -3 19 5 1 7 -16 9 -17 14 -4 4 9 1 21 -5 28 -10 10 -8 12
6 7 15 -6 17 -3 12 14 -5 16 -3 20 6 17 8 -3 14 -14 14 -26 0 -12 7 -28 15
-37 13 -13 15 -11 15 9 0 13 -3 22 -7 19 -11 -6 -10 9 2 27 9 13 12 12 25 -4
9 -11 15 -14 15 -7 0 7 10 11 23 10 12 -1 34 1 49 5 24 7 26 10 13 23 -9 8
-13 19 -10 24 4 5 -2 9 -11 9 -10 0 -15 3 -11 6 3 4 18 3 34 0 21 -6 24 -9 12
-17 -11 -7 -9 -9 9 -9 12 0 22 3 22 8 0 4 14 16 30 27 19 12 28 26 25 35 -4 8
-3 11 1 7 10 -9 64 31 64 49 0 8 6 14 13 14 14 0 73 60 69 72 -1 4 4 8 10 8 7
0 44 30 81 65 45 43 73 63 82 58 7 -5 179 -171 382 -370 312 -306 374 -362
396 -360 30 2 207 159 207 183 0 8 9 14 20 14 11 0 20 4 20 9 0 6 -19 9 -41 9
-37 0 -64 16 -54 32 2 3 -10 12 -27 19 -24 11 -29 18 -25 37 2 14 0 27 -4 30
-5 3 -9 -1 -9 -10 0 -8 -6 -17 -12 -19 -10 -4 -10 -6 0 -6 14 -1 17 -31 3 -31
-13 0 -18 20 -15 58 2 27 -2 33 -22 38 -15 4 -24 13 -24 26 0 10 -4 16 -10 13
-5 -3 -10 1 -10 10 0 11 5 15 14 12 10 -4 13 -1 9 9 -3 7 -12 14 -20 14 -8 0
-12 -4 -9 -9 3 -4 -2 -17 -10 -27 -9 -10 -13 -13 -9 -6 3 7 4 20 0 31 -4 13
-12 17 -31 13 -23 -4 -25 -2 -20 15 5 15 1 22 -14 26 -11 3 -26 20 -34 37 -12
30 -32 28 -21 -2 3 -7 -1 -22 -10 -33 -11 -15 -14 -16 -9 -3 3 9 0 26 -6 38
-7 13 -8 20 -2 16 5 -3 12 5 14 19 5 23 -5 31 -34 26 -5 0 -8 6 -8 14 0 9 -7
18 -16 22 -11 4 -14 13 -10 29 4 13 3 24 -2 24 -9 0 -12 -17 -12 -57 0 -13 -4
-23 -8 -23 -5 0 -8 16 -7 35 2 34 -3 39 -42 38 -6 0 -10 8 -8 18 2 11 -1 19
-6 19 -5 0 -19 16 -30 35 -12 19 -28 35 -36 35 -11 0 -14 6 -10 21 4 15 2 19
-9 15 -8 -3 -14 -1 -14 5 0 6 -4 8 -9 5 -5 -3 -11 3 -14 13 -2 11 -15 21 -28
23 -13 1 -24 10 -24 18 0 8 -7 18 -16 22 -11 4 -15 15 -12 30 3 16 -2 27 -16
36 -17 10 -21 10 -21 -2 0 -8 -6 -17 -12 -19 -10 -4 -10 -6 0 -6 14 -1 17 -31
3 -31 -13 0 -18 20 -15 58 2 27 -2 33 -22 38 -15 4 -24 13 -24 26 0 12 -4 16
-11 12 -9 -5 -10 1 -5 20 3 14 3 26 -2 26 -9 0 -12 -16 -12 -55 -1 -13 -7 -21
-19 -21 -17 0 -17 2 -4 23 21 32 9 61 -23 55 -23 -4 -25 -2 -19 18 5 15 4 20
-4 16 -15 -9 -51 52 -51 87 0 16 -4 26 -9 23 -14 -9 -19 16 -15 72 2 28 -1 54
-6 57 -4 3 -79 -64 -166 -147z m186 -12 c0 -8 -4 -18 -10 -21 -5 -3 -10 3 -10
14 0 12 5 21 10 21 6 0 10 -6 10 -14z m0 -44 c0 -5 -6 -17 -14 -27 -13 -18
-14 -18 -9 8 5 24 23 39 23 19z m-59 -65 c-10 -9 -11 -8 -5 6 3 10 9 15 12 12
3 -3 0 -11 -7 -18z m50 0 c-10 -9 -11 -8 -5 6 3 10 9 15 12 12 3 -3 0 -11 -7
-18z m56 -9 c-3 -8 -6 -5 -6 6 -1 11 2 17 5 13 3 -3 4 -12 1 -19z m-100 -30
c-3 -8 -6 -5 -6 6 -1 11 2 17 5 13 3 -3 4 -12 1 -19z m150 -10 c-3 -8 -6 -5
-6 6 -1 11 2 17 5 13 3 -3 4 -12 1 -19z m-47 -3 c0 -8 -2 -15 -4 -15 -2 0 -6
7 -10 15 -3 8 -1 15 4 15 6 0 10 -7 10 -15z m30 -19 c0 -3 -4 -8 -10 -11 -5
-3 -10 -1 -10 4 0 6 5 11 10 11 6 0 10 -2 10 -4z m-5 -36 c3 -5 1 -10 -4 -10
-6 0 -11 5 -11 10 0 6 2 10 4 10 3 0 8 -4 11 -10z m-80 -10 c3 -5 1 -10 -4
-10 -6 0 -11 5 -11 10 0 6 2 10 4 10 3 0 8 -4 11 -10z m135 3 c0 -5 -5 -15
-10 -23 -7 -12 -9 -10 -7 8 1 19 17 33 17 15z m45 -33 c-3 -56 -11 -59 -13 -5
-1 25 2 45 7 45 4 0 7 -18 6 -40z m85 -16 c0 -8 -4 -14 -10 -14 -5 0 -10 9
-10 21 0 11 5 17 10 14 6 -3 10 -13 10 -21z m-318 -20 c-8 -14 -9 -13 -9 10 0
18 3 24 9 18 7 -7 7 -16 0 -28z m58 14 c0 -6 -6 -5 -15 2 -8 7 -15 14 -15 16
0 2 7 1 15 -2 8 -4 15 -11 15 -16z m-100 2 c0 -5 -2 -10 -4 -10 -3 0 -8 5 -11
10 -3 6 -1 10 4 10 6 0 11 -4 11 -10z m230 3 c0 -5 -5 -15 -10 -23 -7 -12 -9
-10 -7 8 1 19 17 33 17 15z m-360 -58 c0 -8 -4 -15 -10 -15 -5 0 -7 7 -4 15 4
8 8 15 10 15 2 0 4 -7 4 -15z m171 -8 c-10 -9 -11 -8 -5 6 3 10 9 15 12 12 3
-3 0 -11 -7 -18z m239 8 c0 -8 -4 -15 -10 -15 -5 0 -7 7 -4 15 4 8 8 15 10 15
2 0 4 -7 4 -15z m47 -7 c-3 -8 -6 -5 -6 6 -1 11 2 17 5 13 3 -3 4 -12 1 -19z
m53 -10 c0 -19 -2 -20 -10 -8 -13 19 -13 30 0 30 6 0 10 -10 10 -22z m-513
-30 c-3 -8 -6 -5 -6 6 -1 11 2 17 5 13 3 -3 4 -12 1 -19z m3 -38 c0 -5 -2 -10
-4 -10 -3 0 -8 5 -11 10 -3 6 -1 10 4 10 6 0 11 -4 11 -10z m-50 -37 c0 -5 -5
-15 -10 -23 -7 -12 -9 -10 -7 8 1 19 17 33 17 15z m46 -27 c-1 -19 -5 -38 -9
-43 -5 -4 -5 0 -1 10 3 9 2 17 -4 17 -5 0 -7 11 -4 25 7 37 19 30 18 -9z m594
24 c0 -5 -2 -10 -4 -10 -3 0 -8 5 -11 10 -3 6 -1 10 4 10 6 0 11 -4 11 -10z
m46 -24 c-1 -19 -5 -38 -9 -43 -5 -4 -5 0 -1 10 3 9 2 17 -4 17 -5 0 -7 11 -4
25 7 37 19 30 18 -9z m-816 20 c0 -3 -4 -8 -10 -11 -5 -3 -10 -1 -10 4 0 6 5
11 10 11 6 0 10 -2 10 -4z m227 -11 c0 -8 -4 -12 -9 -9 -4 3 -8 9 -8 15 0 5 4
9 8 9 5 0 9 -7 9 -15z m-150 -47 c-3 -7 -5 -2 -5 12 0 14 2 19 5 13 2 -7 2
-19 0 -25z m53 15 c0 -5 -5 -15 -10 -23 -7 -12 -9 -10 -7 8 1 19 17 33 17 15z
m631 -16 c-10 -9 -11 -8 -5 6 3 10 9 15 12 12 3 -3 0 -11 -7 -18z m109 7 c0
-8 -5 -12 -10 -9 -6 4 -8 11 -5 16 9 14 15 11 15 -7z m-923 -56 c-3 -8 -6 -5
-6 6 -1 11 2 17 5 13 3 -3 4 -12 1 -19z m50 -15 c-3 -10 -5 -4 -5 12 0 17 2
24 5 18 2 -7 2 -21 0 -30z m133 22 c0 -8 -4 -15 -10 -15 -5 0 -7 7 -4 15 4 8
8 15 10 15 2 0 4 -7 4 -15z m100 -1 c0 -2 -13 -4 -30 -4 -16 0 -30 4 -30 8 0
5 14 7 30 4 17 -2 30 -6 30 -8z m-180 -14 c0 -11 -2 -20 -4 -20 -2 0 -6 9 -9
20 -3 11 -1 20 4 20 5 0 9 -9 9 -20z m817 -2 c-3 -8 -6 -5 -6 6 -1 11 2 17 5
13 3 -3 4 -12 1 -19z m50 -10 c-3 -7 -5 -2 -5 12 0 14 2 19 5 13 2 -7 2 -19 0
-25z m-767 -19 c0 -4 -7 -6 -15 -3 -8 4 -15 10 -15 15 0 4 7 6 15 3 8 -4 15
-10 15 -15z m-155 -29 c3 -5 1 -10 -4 -10 -6 0 -11 5 -11 10 0 6 2 10 4 10 3
0 8 -4 11 -10z m130 -1 c11 -16 1 -19 -13 -3 -7 8 -8 14 -3 14 5 0 13 -5 16
-11z m50 1 c3 -5 1 -10 -4 -10 -6 0 -11 5 -11 10 0 6 2 10 4 10 3 0 8 -4 11
-10z m825 -5 c0 -8 -4 -15 -10 -15 -5 0 -10 7 -10 15 0 8 5 15 10 15 6 0 10
-7 10 -15z m-1006 -57 c-4 -6 -10 -5 -15 3 -14 22 -10 33 6 19 8 -7 12 -17 9
-22z m-229 13 c3 -5 2 -12 -3 -15 -5 -3 -9 1 -9 9 0 17 3 19 12 6z m135 -1 c0
-5 -2 -10 -4 -10 -3 0 -8 5 -11 10 -3 6 -1 10 4 10 6 0 11 -4 11 -10z m50 2
c0 -5 -7 -17 -16 -28 -15 -18 -15 -18 -5 2 6 12 7 24 4 28 -3 3 -1 6 5 6 7 0
12 -4 12 -8z m137 2 c-3 -3 -12 -4 -19 -1 -8 3 -5 6 6 6 11 1 17 -2 13 -5z
m43 -4 c0 -5 -2 -10 -4 -10 -3 0 -8 5 -11 10 -3 6 -1 10 4 10 6 0 11 -4 11
-10z m870 0 c0 -5 -2 -10 -4 -10 -3 0 -8 5 -11 10 -3 6 -1 10 4 10 6 0 11 -4
11 -10z m-1177 -14 c4 -10 1 -13 -8 -9 -8 3 -12 9 -9 14 7 12 11 11 17 -5z
m-112 -49 c-10 -9 -11 -8 -5 6 3 10 9 15 12 12 3 -3 0 -11 -7 -18z m180 -10
c-8 -8 -11 -7 -11 4 0 20 13 34 18 19 3 -7 -1 -17 -7 -23z m59 18 c0 -8 -9
-15 -20 -15 -11 0 -20 5 -20 11 0 6 7 9 15 5 8 -3 15 -1 15 4 0 6 2 10 5 10 3
0 5 -7 5 -15z m1041 -8 c-10 -9 -11 -8 -5 6 3 10 9 15 12 12 3 -3 0 -11 -7
-18z m50 0 c-10 -9 -11 -8 -5 6 3 10 9 15 12 12 3 -3 0 -11 -7 -18z m39 13 c0
-5 -5 -10 -11 -10 -5 0 -7 5 -4 10 3 6 8 10 11 10 2 0 4 -4 4 -10z m-1032 -6
c-10 -9 -88 -12 -88 -2 0 4 21 8 47 8 25 0 44 -3 41 -6z m-331 -46 c-3 -8 -6
-5 -6 6 -1 11 2 17 5 13 3 -3 4 -12 1 -19z m50 -10 c-3 -8 -6 -5 -6 6 -1 11 2
17 5 13 3 -3 4 -12 1 -19z m100 0 c-3 -8 -6 -5 -6 6 -1 11 2 17 5 13 3 -3 4
-12 1 -19z m80 2 c-3 -12 0 -20 8 -20 7 0 15 -7 19 -15 6 -16 -18 -17 -41 -2
-7 5 -13 4 -13 -2 0 -7 -8 -7 -25 -1 -14 5 -25 7 -25 3 0 -3 -3 -4 -6 0 -4 3
0 12 8 20 11 12 16 12 26 0 14 -14 32 -9 32 8 0 6 -4 7 -10 4 -5 -3 -10 -1
-10 5 0 7 7 10 15 6 8 -3 15 -1 15 4 0 6 3 10 6 10 4 0 4 -9 1 -20z m1200 -2
c-3 -8 -6 -5 -6 6 -1 11 2 17 5 13 3 -3 4 -12 1 -19z m-1327 -5 c0 -14 2 -15
9 -5 6 11 10 10 15 -4 13 -34 -15 -29 -34 7 -7 13 -7 19 0 19 5 0 10 -8 10
-17z m-50 -62 c0 -6 -4 -13 -10 -16 -5 -3 -10 1 -10 9 0 9 5 16 10 16 6 0 10
-4 10 -9z m1410 -1 c0 -5 -2 -10 -4 -10 -3 0 -8 5 -11 10 -3 6 -1 10 4 10 6 0
11 -4 11 -10z m46 -24 c-2 -49 -12 -53 -14 -6 -2 22 1 40 6 40 5 0 8 -16 8
-34z m-1514 -42 c-8 -14 -9 -13 -9 10 0 18 3 24 9 18 7 -7 7 -16 0 -28z m58
16 c0 -19 -18 -19 -23 -1 -3 14 -1 18 9 14 8 -3 14 -9 14 -13z m-100 0 c0 -5
-2 -10 -4 -10 -3 0 -8 5 -11 10 -3 6 -1 10 4 10 6 0 11 -4 11 -10z m1510 0 c0
-5 -2 -10 -4 -10 -3 0 -8 5 -11 10 -3 6 -1 10 4 10 6 0 11 -4 11 -10z m-1460
-55 c0 -8 -4 -15 -10 -15 -5 0 -7 7 -4 15 4 8 8 15 10 15 2 0 4 -7 4 -15z m50
0 c0 -8 -4 -15 -10 -15 -5 0 -7 7 -4 15 4 8 8 15 10 15 2 0 4 -7 4 -15z m1460
0 c0 -8 -4 -15 -10 -15 -5 0 -7 7 -4 15 4 8 8 15 10 15 2 0 4 -7 4 -15z m100
-5 c0 -5 -15 -7 -32 -5 -18 2 -40 4 -48 5 -11 1 -10 3 4 9 22 9 76 2 76 -9z
m-1565 -70 c3 -5 1 -10 -4 -10 -6 0 -11 5 -11 10 0 6 2 10 4 10 3 0 8 -4 11
-10z m60 -70 c3 -5 1 -10 -4 -10 -6 0 -11 5 -11 10 0 6 2 10 4 10 3 0 8 -4 11
-10z m255 -240 c8 -5 11 -10 5 -10 -5 0 -17 5 -25 10 -8 5 -10 10 -5 10 6 0
17 -5 25 -10z m137 -162 c-3 -8 -6 -5 -6 6 -1 11 2 17 5 13 3 -3 4 -12 1 -19z
m193 -174 c0 -8 -4 -12 -10 -9 -5 3 -10 10 -10 16 0 5 5 9 10 9 6 0 10 -7 10
-16z m17 -16 c-3 -8 -6 -5 -6 6 -1 11 2 17 5 13 3 -3 4 -12 1 -19z"/>
<path d="M2121 3884 c0 -11 3 -14 6 -6 3 7 2 16 -1 19 -3 4 -6 -2 -5 -13z"/>
<path d="M2143 3880 c1 -11 5 -20 9 -20 11 0 10 28 -1 35 -6 3 -9 -4 -8 -15z"/>
<path d="M2140 3813 c0 -4 5 -15 10 -23 8 -13 10 -13 10 2 0 9 -4 20 -10 23
-5 3 -10 3 -10 -2z"/>
<path d="M2206 3733 c-6 -14 -5 -15 5 -6 7 7 10 15 7 18 -3 3 -9 -2 -12 -12z"/>
<path d="M2314 3645 c8 -8 17 -15 20 -15 3 0 3 7 0 15 -4 8 -13 15 -21 15 -12
0 -12 -2 1 -15z"/>
<path d="M2436 3514 c-4 -9 -4 -19 -1 -22 2 -3 7 3 11 12 4 9 4 19 1 22 -2 3
-7 -3 -11 -12z"/>
<path d="M2480 3475 c0 -2 9 -9 20 -15 16 -9 18 -8 14 5 -5 13 -34 22 -34 10z"/>
<path d="M2626 3317 c3 -10 9 -15 12 -12 3 3 0 11 -7 18 -10 9 -11 8 -5 -6z"/>
<path d="M2710 3246 c0 -2 7 -9 15 -16 12 -10 15 -10 15 4 0 9 -7 16 -15 16
-8 0 -15 -2 -15 -4z"/>
<path d="M3622 3197 c-58 -33 -57 -20 -60 -532 -3 -433 -2 -473 14 -503 33
-63 27 -62 527 -62 262 0 477 4 508 10 163 30 311 162 360 321 26 82 27 357 3
440 -48 165 -197 297 -368 328 -89 16 -954 14 -984 -2z m965 -288 c42 -15 102
-79 113 -119 13 -45 13 -225 0 -269 -11 -38 -60 -95 -102 -117 -22 -11 -96
-14 -388 -14 l-360 0 0 265 0 265 354 0 c225 0 365 -4 383 -11z"/>
<path d="M5210 3192 c-24 -12 -39 -28 -46 -52 -14 -42 -7 -965 8 -992 24 -48
29 -49 643 -46 l575 3 27 28 c26 26 28 34 31 127 l4 100 -506 0 -507 0 3 88 3
87 353 3 352 2 0 115 0 115 -355 0 -356 0 3 83 3 82 503 3 502 2 0 89 c0 107
-9 135 -52 161 -32 19 -51 20 -593 20 -513 0 -563 -1 -595 -18z"/>
<path d="M7804 3200 c-29 -12 -33 -18 -259 -402 -109 -186 -201 -338 -204
-338 -3 0 -98 156 -211 348 -113 191 -215 357 -227 370 -21 21 -29 22 -188 22
-91 0 -165 -3 -165 -7 1 -5 135 -244 299 -533 239 -421 304 -528 327 -540 44
-22 300 -21 334 1 20 13 285 470 608 1047 l24 42 -159 -1 c-87 0 -168 -4 -179
-9z"/>
<path d="M8430 3199 c-167 -27 -230 -123 -230 -349 0 -137 18 -202 71 -252 73
-69 87 -71 604 -76 336 -3 462 -7 467 -15 4 -7 8 -31 8 -54 0 -78 37 -73 -591
-73 l-559 0 0 -99 c0 -92 2 -102 26 -130 14 -17 42 -36 62 -42 25 -7 211 -9
587 -7 543 3 551 3 606 26 59 23 105 65 135 122 16 30 19 58 19 200 0 186 -9
216 -79 278 -74 65 -100 67 -593 64 -243 -2 -451 -1 -462 3 -18 5 -21 15 -21
60 0 39 4 54 16 59 9 3 270 6 580 6 l564 0 0 99 c0 86 -3 102 -23 132 -13 19
-38 39 -57 46 -42 14 -1043 16 -1130 2z"/>
<path d="M9855 3202 c-64 -21 -75 -47 -75 -176 l0 -106 285 0 285 0 0 -375 0
-375 29 -32 29 -33 111 -3 111 -4 0 411 0 411 300 0 300 0 0 103 c0 123 -16
159 -77 176 -42 12 -1263 14 -1298 3z"/>
<path d="M11454 3196 c-67 -30 -64 -6 -64 -579 l0 -519 111 4 111 3 29 33 c28
32 29 35 29 142 l0 110 258 -1 257 0 104 -131 c72 -90 115 -135 138 -144 25
-11 76 -14 207 -12 l174 3 -139 158 -140 157 28 11 c117 44 190 105 235 197
31 62 33 74 33 167 0 89 -3 107 -29 163 -50 109 -158 189 -308 229 -89 23
-985 31 -1034 9z m975 -294 c93 -50 87 -177 -10 -216 -33 -14 -94 -16 -394
-16 l-355 0 0 125 0 125 363 0 c332 0 365 -2 396 -18z"/>
<path d="M13010 2690 l0 -520 29 -32 29 -33 141 -3 142 -4 -3 519 c-3 481 -4
520 -21 545 -26 39 -65 48 -198 48 l-119 0 0 -520z"/>
<path d="M13592 2681 l3 -530 23 -23 c20 -21 34 -23 137 -26 l115 -4 0 289 c1
259 2 286 16 268 8 -11 72 -119 141 -240 69 -121 139 -233 155 -248 l30 -28
142 3 c98 2 148 7 158 16 9 7 81 125 159 261 l144 249 3 -284 2 -284 106 0
c127 0 158 12 174 68 7 25 10 199 8 537 l-3 500 -120 3 c-197 5 -159 42 -412
-398 -120 -208 -221 -379 -224 -380 -3 0 -100 163 -215 362 -115 200 -219 374
-231 388 -21 24 -25 25 -167 28 l-147 3 3 -530z"/>
<path d="M1961 3060 c-109 -113 -132 -142 -126 -159 3 -11 164 -177 358 -368
193 -192 364 -361 380 -378 l29 -30 -233 -229 c-129 -126 -233 -236 -231 -243
5 -21 -15 -15 -21 7 -8 32 -35 25 -29 -7 5 -26 4 -27 -13 -13 -17 14 -18 13
-12 -3 5 -13 3 -17 -5 -14 -7 2 -12 17 -11 33 2 23 1 25 -6 9 -8 -19 -8 -19
-19 0 -10 17 -12 12 -13 -30 -1 -27 -3 -42 -6 -32 -2 9 -9 14 -15 11 -7 -5 -8
-2 -4 5 9 15 -13 73 -25 66 -4 -3 -6 -25 -4 -50 3 -24 1 -46 -3 -49 -5 -3 -8
3 -8 12 0 62 -5 92 -14 87 -6 -4 -10 5 -10 19 0 14 -5 26 -10 26 -6 0 -8 -11
-4 -25 7 -30 -11 -34 -26 -5 -8 15 -8 20 2 20 9 0 9 3 2 8 -6 4 -14 14 -18 22
-19 40 -36 64 -36 50 1 -8 7 -24 15 -34 17 -23 19 -36 5 -36 -5 0 -10 8 -10
18 0 10 -3 13 -8 6 -4 -6 -13 -4 -24 8 -16 16 -16 18 -2 18 10 0 14 7 12 18
-2 9 -9 16 -15 15 -5 -1 -10 12 -11 29 0 16 -3 33 -6 36 -6 5 -9 -48 -7 -98 1
-19 -3 -15 -14 15 -8 22 -14 47 -14 55 3 33 -2 48 -15 53 -11 5 -14 -4 -11
-38 1 -23 -1 -49 -6 -56 -5 -9 -9 10 -9 49 0 40 -4 61 -10 57 -6 -4 -10 5 -10
19 0 14 -5 26 -10 26 -6 0 -8 -11 -4 -25 7 -28 -7 -33 -27 -9 -10 13 -10 17 2
25 10 6 10 9 2 9 -7 0 -13 7 -13 15 0 21 -20 19 -21 -2 -1 -12 -4 -10 -9 7 -8
25 -8 25 -10 -5 -2 -22 -4 -24 -7 -10 -3 11 -11 25 -18 31 -9 7 -10 15 -4 25
7 12 9 12 9 0 0 -8 2 -12 5 -9 3 3 -2 22 -12 44 -16 38 -16 38 -23 14 -4 -14
-5 -37 -2 -52 2 -16 1 -28 -4 -28 -9 0 -13 23 -16 83 0 20 -3 25 -9 15 -6 -9
-9 -5 -9 14 0 15 -5 30 -10 33 -7 4 -9 -2 -5 -18 9 -33 -7 -41 -22 -11 -8 18
-8 24 0 24 8 0 8 3 -1 9 -7 4 -14 18 -15 29 -1 12 -5 22 -9 22 -5 0 -6 -11 -2
-25 7 -29 -7 -33 -30 -9 -10 9 -14 24 -10 39 3 12 1 26 -5 29 -6 4 -11 2 -11
-5 0 -7 -3 -10 -6 -6 -10 9 7 48 18 41 5 -3 3 8 -6 24 -9 17 -16 45 -16 63 0
18 -3 29 -7 26 -3 -4 -5 -38 -5 -77 1 -38 -2 -70 -7 -70 -5 0 -7 10 -3 22 3
12 1 19 -4 15 -10 -6 -10 38 1 95 6 31 4 39 -10 44 -9 4 -20 1 -25 -5 -4 -7
-11 -12 -16 -10 -5 1 -71 -54 -146 -122 -108 -97 -138 -129 -138 -149 0 -21
98 -124 486 -510 267 -267 491 -490 498 -495 6 -6 35 -32 63 -59 l53 -48 186
183 c231 226 234 230 234 240 0 5 4 8 9 7 5 -2 20 8 33 22 13 14 151 148 306
299 155 151 280 277 277 279 -3 3 0 11 6 19 9 9 8 13 0 13 -6 0 -11 7 -11 15
0 8 -7 15 -17 15 -14 0 -14 -2 2 -20 16 -18 16 -20 2 -20 -18 0 -77 53 -77 70
0 5 -7 10 -15 10 -9 0 -15 10 -15 26 0 14 -4 23 -9 20 -5 -4 -12 0 -14 6 -4 8
-6 7 -6 -4 -1 -9 4 -20 9 -23 18 -11 11 -23 -10 -18 -11 3 -20 14 -20 25 0 10
-4 16 -10 13 -5 -3 -10 1 -10 9 0 10 -6 13 -17 10 -16 -5 -16 -4 0 6 14 9 22
9 34 -2 14 -11 15 -11 11 2 -3 8 -15 15 -28 15 -14 0 -26 9 -31 22 -4 12 -17
28 -29 35 -11 7 -20 21 -20 31 0 10 -4 16 -9 13 -4 -3 -6 -17 -3 -31 6 -34 -4
-32 -24 6 -8 17 -11 28 -5 25 6 -4 11 0 11 9 0 10 -5 13 -12 9 -8 -5 -7 0 2
11 9 11 10 16 3 11 -7 -4 -13 -2 -13 3 0 6 -5 10 -12 8 -6 -1 -14 8 -17 20 -4
16 -10 20 -20 14 -9 -6 -10 -11 -2 -15 16 -10 13 -26 -4 -20 -8 3 -17 14 -20
25 -4 11 -11 16 -17 13 -7 -5 -9 2 -4 20 4 16 2 26 -4 26 -6 0 -9 -4 -5 -9 3
-5 1 -12 -5 -16 -6 -4 -13 7 -16 24 -4 16 -17 40 -30 52 -13 12 -24 28 -24 35
0 9 -6 11 -17 7 -11 -4 -12 -8 -5 -11 17 -5 15 -39 -4 -46 -9 -3 -12 -2 -9 5
11 17 -15 68 -31 62 -8 -3 -14 1 -14 11 0 20 14 20 34 0 15 -14 16 -14 16 5 0
12 -3 20 -7 20 -21 -3 -32 3 -38 21 -3 11 -13 20 -22 20 -12 0 -13 -3 -3 -15
6 -8 10 -20 7 -27 -3 -8 -6 -5 -6 6 -1 11 -4 16 -8 13 -3 -4 -14 11 -24 33
-10 22 -21 40 -24 40 -3 0 -3 -4 0 -10 3 -5 1 -10 -5 -10 -6 0 -15 10 -20 23
-8 20 -9 20 -10 2 -1 -20 -1 -20 -15 -1 -17 23 -20 40 -5 31 6 -4 3 9 -6 28
-11 22 -22 33 -30 30 -10 -4 -14 3 -14 22 0 14 -4 24 -9 21 -5 -4 -12 0 -14 6
-4 8 -6 7 -6 -4 -1 -9 4 -20 9 -23 18 -11 11 -23 -10 -18 -11 3 -20 14 -20 25
0 10 -4 16 -10 13 -5 -3 -10 1 -10 9 0 8 -6 13 -13 10 -8 -3 -13 5 -15 23 -1
16 -15 40 -31 55 -30 28 -30 28 -33 5 -3 -20 -5 -19 -21 11 -10 17 -13 32 -7
32 5 0 10 5 10 11 0 5 -4 7 -10 4 -5 -3 -10 3 -10 15 0 12 -4 19 -9 15 -13 -7
-23 28 -15 51 6 18 5 18 -10 -1 -17 -20 -17 -20 -11 3 15 53 12 101 -7 122
-10 11 -26 19 -36 19 -9 -1 -77 -64 -151 -139z m179 98 c0 -5 -4 -8 -10 -8 -5
0 -10 10 -10 23 0 18 2 19 10 7 5 -8 10 -18 10 -22z m-4 -55 c-10 -10 -19 5
-10 18 6 11 8 11 12 0 2 -7 1 -15 -2 -18z m1 -85 c-3 -8 -6 -5 -6 6 -1 11 2
17 5 13 3 -3 4 -12 1 -19z m53 -43 c0 -8 -4 -15 -10 -15 -5 0 -10 7 -10 15 0
8 5 15 10 15 6 0 10 -7 10 -15z m0 -45 c0 -5 -2 -10 -4 -10 -3 0 -8 5 -11 10
-3 6 -1 10 4 10 6 0 11 -4 11 -10z m74 -50 c-6 -6 -10 -3 -10 10 0 13 4 16 10
10 7 -7 7 -13 0 -20z m-27 -12 c-3 -8 -6 -5 -6 6 -1 11 2 17 5 13 3 -3 4 -12
1 -19z m53 -10 c0 -18 -2 -20 -9 -8 -6 8 -7 18 -5 22 9 14 14 9 14 -14z m127
-132 c-2 -19 -6 -38 -10 -43 -5 -4 -5 0 -1 10 3 9 2 17 -4 17 -5 0 -7 11 -4
25 7 37 21 30 19 -9z m50 -98 c-3 -8 -6 -5 -6 6 -1 11 2 17 5 13 3 -3 4 -12 1
-19z m50 -15 c-3 -10 -5 -4 -5 12 0 17 2 24 5 18 2 -7 2 -21 0 -30z m83 -93
c0 -5 -2 -10 -4 -10 -3 0 -8 5 -11 10 -3 6 -1 10 4 10 6 0 11 -4 11 -10z m97
-72 c-3 -7 -5 -2 -5 12 0 14 2 19 5 13 2 -7 2 -19 0 -25z m0 -50 c-3 -8 -6 -5
-6 6 -1 11 2 17 5 13 3 -3 4 -12 1 -19z m133 -63 c0 -8 -4 -15 -10 -15 -5 0
-10 7 -10 15 0 8 5 15 10 15 6 0 10 -7 10 -15z m0 -45 c0 -5 -2 -10 -4 -10 -3
0 -8 5 -11 10 -3 6 -1 10 4 10 6 0 11 -4 11 -10z m47 -62 c-3 -8 -6 -5 -6 6
-1 11 2 17 5 13 3 -3 4 -12 1 -19z m50 -10 c-3 -8 -6 -5 -6 6 -1 11 2 17 5 13
3 -3 4 -12 1 -19z m-1560 -40 c-3 -7 -5 -2 -5 12 0 14 2 19 5 13 2 -7 2 -19 0
-25z m78 -58 c3 -5 1 -10 -4 -10 -6 0 -11 5 -11 10 0 6 2 10 4 10 3 0 8 -4 11
-10z m1611 -35 c0 -25 -3 -32 -12 -24 -7 5 -9 19 -6 31 4 16 2 19 -8 13 -9 -5
-11 -4 -6 3 15 24 32 12 32 -23z m-1556 -22 c0 -5 -5 -15 -10 -23 -8 -12 -10
-11 -10 8 0 12 5 22 10 22 6 0 10 -3 10 -7z m1510 0 c0 -5 -5 -15 -10 -23 -7
-12 -9 -10 -7 8 1 19 17 33 17 15z m100 -3 c0 -5 -7 -10 -15 -10 -8 0 -15 5
-15 10 0 6 7 10 15 10 8 0 15 -4 15 -10z m-7 -57 c-7 -2 -19 -2 -25 0 -7 3 -2
5 12 5 14 0 19 -2 13 -5z m-1428 -113 c3 -5 1 -10 -4 -10 -6 0 -11 5 -11 10 0
6 2 10 4 10 3 0 8 -4 11 -10z m235 -241 c0 -6 -4 -7 -10 -4 -5 3 -10 11 -10
16 0 6 5 7 10 4 6 -3 10 -11 10 -16z"/>
<path d="M2786 3155 c4 -8 8 -15 10 -15 2 0 4 7 4 15 0 8 -4 15 -10 15 -5 0
-7 -7 -4 -15z"/>
<path d="M2846 3093 c-6 -14 -5 -15 5 -6 7 7 10 15 7 18 -3 3 -9 -2 -12 -12z"/>
<path d="M2953 3023 c-10 -4 -9 -9 3 -20 18 -18 24 -15 15 8 -3 9 -12 14 -18
12z"/>
<path d="M1607 2929 c7 -7 15 -10 18 -7 3 3 -2 9 -12 12 -14 6 -15 5 -6 -5z"/>
<path d="M3021 2924 c0 -11 3 -14 6 -6 3 7 2 16 -1 19 -3 4 -6 -2 -5 -13z"/>
<path d="M3076 2874 c-4 -9 -4 -19 -1 -22 2 -3 7 3 11 12 4 9 4 19 1 22 -2 3
-7 -3 -11 -12z"/>
<path d="M3126 2874 c-4 -9 -4 -19 -1 -22 2 -3 7 3 11 12 4 9 4 19 1 22 -2 3
-7 -3 -11 -12z"/>
<path d="M2336 2846 c21 -15 30 -14 19 3 -3 6 -14 11 -23 11 -13 0 -13 -2 4
-14z"/>
<path d="M1600 2753 c0 -5 5 -15 10 -23 8 -12 10 -11 10 8 0 12 -4 22 -10 22
-5 0 -10 -3 -10 -7z"/>
<path d="M1660 2684 c0 -8 5 -12 10 -9 6 4 8 11 5 16 -9 14 -15 11 -15 -7z"/>
<path d="M2555 2659 c-4 -6 -5 -12 -2 -15 2 -3 7 2 10 11 7 17 1 20 -8 4z"/>
<path d="M1780 2573 c0 -5 5 -15 10 -23 8 -12 10 -11 10 8 0 12 -4 22 -10 22
-5 0 -10 -3 -10 -7z"/>
<path d="M1834 2514 c3 -8 6 -18 6 -20 0 -3 5 -2 10 1 15 9 12 22 -6 29 -12 5
-15 2 -10 -10z"/>
<path d="M2786 2435 c-9 -26 -7 -32 5 -12 6 10 9 21 6 23 -2 3 -7 -2 -11 -11z"/>
<path d="M1895 2430 c-19 -7 -19 -8 5 -18 16 -6 26 -6 29 0 6 16 -13 26 -34
18z"/>
<path d="M2010 2339 c0 -5 5 -7 10 -4 6 3 10 8 10 11 0 2 -4 4 -10 4 -5 0 -10
-5 -10 -11z"/>
<path d="M2121 2234 c0 -11 3 -14 6 -6 3 7 2 16 -1 19 -3 4 -6 -2 -5 -13z"/>
<path d="M2121 2194 c0 -11 3 -14 6 -6 3 7 2 16 -1 19 -3 4 -6 -2 -5 -13z"/>
<path d="M2140 2185 c0 -8 5 -15 10 -15 6 0 10 7 10 15 0 8 -4 15 -10 15 -5 0
-10 -7 -10 -15z"/>
<path d="M2190 2110 c0 -13 11 -13 30 0 12 8 11 10 -7 10 -13 0 -23 -4 -23
-10z"/>
<path d="M2240 2110 c0 -6 7 -10 15 -10 8 0 15 2 15 4 0 2 -7 6 -15 10 -8 3
-15 1 -15 -4z"/>
<path d="M3197 2091 c-17 -6 -17 -9 -4 -19 12 -10 16 -9 21 4 8 21 6 23 -17
15z"/>
<path d="M1601 2024 c0 -11 3 -14 6 -6 3 7 2 16 -1 19 -3 4 -6 -2 -5 -13z"/>
<path d="M10840 1785 c-14 -17 -5 -51 16 -59 20 -8 54 11 54 29 0 43 -43 62
-70 30z"/>
<path d="M12120 1785 c-14 -17 -5 -51 16 -59 20 -8 54 11 54 29 0 43 -43 62
-70 30z"/>
<path d="M5830 1530 l0 -230 125 0 125 0 0 25 c0 25 0 25 -95 25 l-95 0 0 80
0 80 85 0 c84 0 85 0 85 25 0 25 -1 25 -85 25 l-85 0 0 75 0 75 95 0 c95 0 95
0 95 25 l0 25 -125 0 -125 0 0 -230z"/>
<path d="M9100 1530 l0 -230 30 0 30 0 0 230 0 230 -30 0 -30 0 0 -230z"/>
<path d="M11900 1705 c0 -41 -2 -45 -25 -45 -20 0 -25 -5 -25 -25 0 -20 5 -25
25 -25 l25 0 0 -129 c0 -159 7 -172 93 -179 56 -4 57 -4 57 22 0 24 -4 26 -40
26 -54 0 -60 16 -60 149 l0 111 50 0 c47 0 50 2 50 25 0 23 -3 25 -50 25 l-50
0 0 45 c0 41 -2 45 -25 45 -23 0 -25 -4 -25 -45z"/>
<path d="M6300 1663 c-8 -3 -27 -15 -42 -25 -28 -19 -28 -19 -28 1 0 17 -6 21
-30 21 l-30 0 0 -180 0 -180 29 0 29 0 4 131 3 131 33 29 c44 40 93 40 133 0
l29 -29 0 -131 0 -131 29 0 29 0 4 131 3 131 33 29 c44 39 90 39 134 0 l33
-29 4 -131 c3 -131 3 -131 27 -131 l24 0 0 131 c0 158 -11 192 -74 220 -23 10
-52 19 -66 19 -37 0 -107 -35 -120 -60 -11 -21 -11 -21 -32 6 -34 43 -109 65
-158 47z"/>
<path d="M6996 1660 c-16 -5 -42 -21 -57 -36 l-29 -28 0 32 c0 29 -3 32 -30
32 l-30 0 0 -265 0 -265 30 0 30 0 0 117 0 116 23 -20 c35 -33 62 -43 112 -43
86 0 140 41 165 127 27 88 -11 181 -90 221 -46 23 -76 26 -124 12z m111 -65
c72 -47 67 -192 -8 -230 -64 -33 -145 -10 -173 49 -61 128 67 256 181 181z"/>
<path d="M7397 1656 c-50 -18 -76 -42 -98 -91 -37 -81 -14 -189 52 -236 45
-32 141 -39 193 -14 58 28 89 76 94 146 2 32 2 69 -2 83 -15 60 -104 126 -171
125 -16 0 -47 -6 -68 -13z m119 -52 c38 -18 61 -53 65 -99 5 -65 -1 -87 -35
-121 -30 -30 -41 -34 -84 -34 -85 0 -129 55 -120 150 10 97 89 144 174 104z"/>
<path d="M8355 1652 c-22 -11 -50 -30 -61 -43 -67 -76 -53 -222 27 -279 39
-29 133 -39 179 -20 30 13 90 72 90 90 0 20 -59 11 -70 -11 -24 -44 -117 -59
-160 -26 -24 18 -50 59 -50 79 0 16 13 18 145 18 l145 0 0 38 c0 51 -38 122
-77 145 -48 28 -120 31 -168 9z m157 -71 c15 -17 28 -40 28 -51 0 -19 -7 -20
-115 -20 -74 0 -115 4 -115 10 0 24 32 70 58 85 44 25 110 14 144 -24z"/>
<path d="M8805 1658 c-11 -6 -30 -20 -42 -31 l-23 -20 0 26 c0 23 -4 27 -30
27 l-30 0 0 -180 0 -180 29 0 29 0 4 129 c3 147 12 167 80 177 34 6 38 10 38
35 0 32 -19 37 -55 17z"/>
<path d="M9390 1663 c-8 -3 -27 -15 -42 -25 -28 -19 -28 -19 -28 1 0 17 -6 21
-30 21 l-30 0 0 -180 0 -180 29 0 29 0 4 131 3 131 33 29 c44 40 93 40 133 0
l29 -29 0 -131 0 -131 29 0 29 0 4 131 3 131 33 29 c44 39 90 39 134 0 l33
-29 4 -131 c3 -131 3 -131 27 -131 l24 0 0 131 c0 158 -11 192 -74 220 -23 10
-52 19 -66 19 -37 0 -107 -35 -120 -60 -11 -21 -11 -21 -32 6 -34 43 -109 65
-158 47z"/>
<path d="M10045 1658 c-99 -35 -144 -166 -92 -268 31 -62 76 -90 144 -90 57 0
84 9 121 43 l22 20 0 -31 c0 -29 3 -32 30 -32 l30 0 0 180 0 180 -30 0 c-27 0
-30 -3 -30 -32 l0 -32 -28 27 c-45 43 -107 56 -167 35z m118 -52 c86 -35 101
-168 26 -231 -36 -30 -106 -34 -145 -9 -76 51 -71 185 9 234 38 23 66 25 110
6z"/>
<path d="M10485 1658 c-99 -35 -144 -166 -92 -268 31 -62 76 -90 144 -90 57 0
84 9 121 43 l22 20 0 -49 c0 -68 -26 -115 -72 -132 -53 -20 -105 -8 -143 34
-31 33 -75 46 -75 22 0 -26 39 -75 72 -91 104 -49 207 -22 256 68 14 24 17 68
20 238 l4 207 -31 0 c-28 0 -31 -3 -31 -32 l0 -32 -28 27 c-45 43 -107 56
-167 35z m118 -52 c86 -35 101 -168 26 -231 -36 -30 -106 -34 -145 -9 -76 51
-71 185 9 234 38 23 66 25 110 6z"/>
<path d="M11117 1646 c-44 -22 -47 -22 -47 -5 0 14 -7 19 -30 19 l-30 0 0
-180 0 -180 29 0 29 0 4 131 3 131 33 29 c35 31 73 37 116 18 43 -20 56 -64
56 -193 l0 -116 31 0 32 0 -5 133 c-5 157 -17 189 -81 218 -55 25 -84 24 -140
-5z"/>
<path d="M11525 1658 c-99 -35 -144 -166 -92 -268 31 -62 76 -90 144 -90 57 0
84 9 121 43 l22 20 0 -31 c0 -29 3 -32 30 -32 l30 0 0 180 0 180 -30 0 c-27 0
-30 -3 -30 -32 l0 -32 -28 27 c-45 43 -107 56 -167 35z m118 -52 c86 -35 101
-168 26 -231 -36 -30 -106 -34 -145 -9 -76 51 -71 185 9 234 38 23 66 25 110
6z"/>
<path d="M12377 1656 c-50 -18 -76 -42 -98 -91 -37 -81 -14 -189 52 -236 45
-32 141 -39 193 -14 58 28 89 76 94 146 2 32 2 69 -2 83 -15 60 -104 126 -171
125 -16 0 -47 -6 -68 -13z m119 -52 c38 -18 61 -53 65 -99 5 -65 -1 -87 -35
-121 -30 -30 -41 -34 -84 -34 -85 0 -129 55 -120 150 10 97 89 144 174 104z"/>
<path d="M12817 1646 c-44 -22 -47 -22 -47 -5 0 14 -7 19 -30 19 l-30 0 0
-180 0 -180 29 0 29 0 4 131 3 131 33 29 c35 31 73 37 116 18 43 -20 56 -64
56 -193 l0 -116 31 0 32 0 -5 133 c-5 157 -17 189 -81 218 -55 25 -84 24 -140
-5z"/>
<path d="M7694 1618 c7 -24 32 -105 56 -181 l44 -138 30 3 c30 3 31 6 68 127
20 68 40 131 44 140 7 18 12 5 64 -166 30 -100 32 -103 60 -103 29 0 30 2 75
148 26 81 50 160 56 176 12 38 13 36 -19 36 -27 0 -28 -2 -67 -150 -21 -82
-42 -145 -45 -139 -4 6 -25 73 -46 150 l-39 139 -31 0 -31 0 -43 -150 c-24
-82 -45 -148 -47 -146 -4 3 -43 140 -73 254 -10 37 -14 42 -40 42 l-29 0 13
-42z"/>
<path d="M10840 1480 l0 -180 30 0 30 0 0 180 0 180 -30 0 -30 0 0 -180z"/>
<path d="M12120 1480 l0 -180 30 0 30 0 0 180 0 180 -30 0 -30 0 0 -180z"/>
<path d="M3720 1460 c0 -20 7 -20 950 -20 943 0 950 0 950 20 0 20 -7 20 -950
20 -943 0 -950 0 -950 -20z"/>
<path d="M13290 1460 c0 -20 7 -20 950 -20 943 0 950 0 950 20 0 20 -7 20
-950 20 -943 0 -950 0 -950 -20z"/>
</g>
</svg>
